# Made in Blockbench 4.12.6
mtllib teapot.mtl

o cylinder
v 0 0 0
v -0.25 0 0.103553125
v -0.25 0.03125 0.103553125
v -0.103553125 0 0.25
v -0.103553125 0.03125 0.25
v -0.375 0.0625 0.15533
v -0.15533 0.0625 0.375
v -0.4375 0.1875 0.181218125
v -0.181218125 0.1875 0.4375
v -0.4375 0.3125 0.181218125
v -0.181218125 0.3125 0.4375
v -0.3125 0.6875 0.129441875
v -0.129441875 0.6875 0.3125
v -0.125 0.75 0.051776875
v -0.051776875 0.75 0.125
v -0.0388325 0.78125 0.09375
v -0.09375 0.78125 0.0388325
v -0.051776875 0.90625 0.125
v -0.125 0.90625 0.051776875
v 0 0.953125 0
v -0.0388325 0.9375 0.09375
v -0.09375 0.9375 0.0388325
vt 0.5165853125 0.9790496875
vt 0.4209146875 0.9394203125
vt 0.5165853125 0.84375
vt 0.59375 0.59375
vt 0.6875 0.59375
vt 0.6875 0.625
vt 0.59375 0.625
vt 0.006471875 0.29622812499999995
vt 0.045303125 0.29622812499999995
vt 0.0258875 0.34375
vt 0.62408125 0.53125
vt 0.46875 0.53125
vt 0.4946375 0.46875
vt 0.59819375 0.46875
vt 0.18121875 0.739859375
vt 0 0.739859375
vt 0.01294375 0.66998125
vt 0.168275 0.66998125
vt 0.18121875 0.802359375
vt 0 0.802359375
vt 0 0.739859375
vt 0.18121875 0.739859375
vt 0.15533125 1
vt 0.0258875 1
vt 0 0.802359375
vt 0.18121875 0.802359375
vt 0.309359375 0.977903125
vt 0.257584375 0.977903125
vt 0.21875 0.879084375
vt 0.34819375 0.879084375
vt 0.3028875 1
vt 0.26405625 1
vt 0.257584375 0.977903125
vt 0.309359375 0.977903125
vt 0.551775 0.625
vt 0.5 0.625
vt 0.506471875 0.5625
vt 0.545303125 0.5625
vt 0.045303125 0.29622812499999995
vt 0.006471875 0.29622812499999995
vt 0 0.27413125000000005
vt 0.051775 0.27413125000000005
vn 0 -1 0
vn -0.7071067811865476 0 0.7071067811865476
vn -0.11624765706193803 0.9863939195145214 0.11624765706193803
vn -0.1714984210599598 -0.9701425581572442 0.1714984210599598
vn -0.6324558506618514 -0.4472126942822485 0.6324558506618514
vn -0.7071067811865476 0 0.7071067811865476
vn -0.6708205622279808 0.3162270491028109 0.6708205622279808
vn -0.22360683034291295 0.9486832826860563 0.22360683034291295
vn -0.49999886197888527 0.7071083905877792 0.49999886197888527
vn -0.6859941568810011 -0.2425366641360624 0.6859941568810011
vn -0.49999886197888527 0.7071083905877792 0.49999886197888527
usemtl m_695a7a8e-0f10-5f71-2563-804a7911bf70
f 4/1/1 2/2/1 1/3/1
f 2/4/2 4/5/2 5/6/2 3/7/2
f 22/8/3 21/9/3 20/10/3
f 7/11/4 6/12/4 3/13/4 5/14/4
f 9/15/5 8/16/5 6/17/5 7/18/5
f 11/19/6 10/20/6 8/21/6 9/22/6
f 13/23/7 12/24/7 10/25/7 11/26/7
f 15/27/8 14/28/8 12/29/8 13/30/8
f 16/31/9 17/32/9 14/33/9 15/34/9
f 18/35/10 19/36/10 17/37/10 16/38/10
f 21/39/11 22/40/11 19/41/11 18/42/11
o cube
v 0 0.3041265877365274 0.6227563509461097
v 0 0.14787658773652743 0.3521234122634726
v 0 0.25 0.6540063509461097
v 0 0.09375 0.3833734122634726
v -0.0625 0.3041265877365274 0.6227563509461097
v -0.0625 0.14787658773652743 0.3521234122634726
v -0.0625 0.25 0.6540063509461097
v -0.0625 0.09375 0.3833734122634726
v 0 0.3869170005972503 0.6259885524004856
v 0 0.2661762639543759 0.5936357119917337
v 0 0.3707404241428744 0.6863586500889841
v 0 0.25 0.6540063509461097
v -0.0625 0.3869170005972503 0.6259885524004856
v -0.0625 0.2661762639543759 0.5936357119917337
v -0.0625 0.3707404241428744 0.6863586500889841
v -0.0625 0.25 0.6540063509461097
v 0 0.5018701873524567 0.5384820623524567
v 0 0.3394904241428744 0.6322320623524567
v 0 0.5331201873524567 0.5926086500889842
v 0 0.3707404241428744 0.6863586500889841
v -0.0625 0.5018701873524567 0.5384820623524567
v -0.0625 0.3394904241428744 0.6322320623524567
v -0.0625 0.5331201873524567 0.5926086500889842
v -0.0625 0.3707404241428744 0.6863586500889841
v 0 0.553630951904083 0.27458058639448346
v 0 0.47275040216395814 0.5764326149004856
v 0 0.6140015908584588 0.29075685034885934
v 0 0.5331201873524567 0.5926086500889842
v -0.0625 0.553630951904083 0.27458058639448346
v -0.0625 0.47275040216395814 0.5764326149004856
v -0.0625 0.6140015908584588 0.29075685034885934
v -0.0625 0.5331201873524567 0.5926086500889842
vt 0.65625 0.78125
vt 0.65625 0.8125
vt 0.5 0.8125
vt 0.5 0.78125
vt 0.65625 0.71875
vt 0.65625 0.75
vt 0.5 0.75
vt 0.5 0.71875
vt 0.59375 0.84375
vt 0.59375 1
vt 0.5625 1
vt 0.5625 0.84375
vt 0.5 0.28125
vt 0.5 0.4375
vt 0.46875 0.4375
vt 0.46875 0.28125
vt 0.6875 0.71875
vt 0.71875 0.71875
vt 0.71875 0.78125
vt 0.6875 0.78125
vt 0.75 0.65625
vt 0.75 0.6875
vt 0.6875 0.6875
vt 0.6875 0.65625
vt 0.15625 0.28125
vt 0.15625 0.21875
vt 0.1875 0.21875
vt 0.1875 0.28125
vt 0.6875 0.25
vt 0.6875 0.3125
vt 0.65625 0.3125
vt 0.65625 0.25
vt 0.09375 0.25
vt 0.125 0.25
vt 0.125 0.34375
vt 0.09375 0.34375
vt 0.6875 0.5625
vt 0.65625 0.5625
vt 0.65625 0.46875
vt 0.6875 0.46875
vt 0.65625 0.4375
vt 0.65625 0.34375
vt 0.6875 0.34375
vt 0.6875 0.4375
vt 0.71875 0.90625
vt 0.71875 1
vt 0.6875 1
vt 0.6875 0.90625
vt 0.5 0.6875
vt 0.5 0.65625
vt 0.65625 0.65625
vt 0.65625 0.6875
vt 0.5625 0.4375
vt 0.53125 0.4375
vt 0.53125 0.28125
vt 0.5625 0.28125
vt 0.59375 0.4375
vt 0.59375 0.28125
vt 0.625 0.28125
vt 0.625 0.4375
vt 0.65625 0.84375
vt 0.65625 1
vt 0.625 1
vt 0.625 0.84375
vn 1 0 0
vn -1 0 0
vn 0 0.8660254037844387 -0.49999999999999994
vn 0 -0.8660254037844387 0.49999999999999994
vn 1 0 0
vn -1 0 0
vn 0 0.25882246016094124 -0.965924911220452
vn 0 -0.2588190451025208 0.9659258262890684
vn 1 0 0
vn -1 0 0
vn 0 -0.49999999999999994 -0.8660254037844387
vn 0 0.49999999999999994 0.8660254037844387
vn 1 0 0
vn -1 0 0
vn 0 -0.9659261923133928 -0.2588176790772808
vn 0 0.9659254602628118 0.25882041112724324
usemtl m_695a7a8e-0f10-5f71-2563-804a7911bf70
f 26/43/12 24/44/12 23/45/12 25/46/12
f 29/47/13 27/48/13 28/49/13 30/50/13
f 23/51/14 24/52/14 28/53/14 27/54/14
f 26/55/15 25/56/15 29/57/15 30/58/15
f 34/59/16 32/60/16 31/61/16 33/62/16
f 37/63/17 35/64/17 36/65/17 38/66/17
f 31/67/18 32/68/18 36/69/18 35/70/18
f 34/71/19 33/72/19 37/73/19 38/74/19
f 42/75/20 40/76/20 39/77/20 41/78/20
f 45/79/21 43/80/21 44/81/21 46/82/21
f 39/83/22 40/84/22 44/85/22 43/86/22
f 42/87/23 41/88/23 45/89/23 46/90/23
f 50/91/24 48/92/24 47/93/24 49/94/24
f 53/95/25 51/96/25 52/97/25 54/98/25
f 47/99/26 48/100/26 52/101/26 51/102/26
f 50/103/27 49/104/27 53/105/27 54/106/27
o cylinder
v 0.051776875 0.40088834764831843 -0.22411165235168157
v 0.025888125 0.5852474373479664 -0.46560938938858487
v 0.125 0.34911177942114824 -0.27588822057885176
v 0.0625 0.5593593742052503 -0.4914974525313009
v 0.125 0.27588822057885176 -0.34911177942114824
v 0.0625 0.522747594784102 -0.5281092319524491
v 0.051776875 0.22411165235168157 -0.40088834764831843
v 0.025888125 0.49685908969964787 -0.5539977370369034
v -0.051776875 0.22411165235168157 -0.40088834764831843
v -0.025888125 0.49685908969964787 -0.5539977370369034
v -0.125 0.27588822057885176 -0.34911177942114824
v -0.0625 0.522747594784102 -0.5281092319524491
v -0.125 0.34911177942114824 -0.27588822057885176
v -0.0625 0.5593593742052503 -0.4914974525313009
v -0.051776875 0.40088834764831843 -0.22411165235168157
v -0.025888125 0.5852474373479664 -0.46560938938858487
v -0.046875 0.6713840918399439 -0.5842119678552663
v -0.01941625 0.678922734010869 -0.5568593097920177
v 0 0.6660533905932737 -0.6035531060876713
v 0.01941625 0.678922734010869 -0.5568593097920177
v 0.046875 0.6713840918399439 -0.5842119678552663
v 0.046875 0.6607231312883419 -0.6228946862618147
v 0.01941625 0.6531844891174168 -0.6502473443250633
v -0.01941625 0.6531844891174168 -0.6502473443250633
v -0.046875 0.6607231312883419 -0.6228946862618147
vt 0.198225 0.3377115625
vt 0.25 0.33778656250000005
vt 0.2290225 0.49013125
vt 0.203135 0.49009375
vt 0.728459375 0.8265678125
vt 0.742188125 0.8407515624999999
vt 0.7187509375 0.8507840625
vt 0.2294759375 0.6072478125
vt 0.28125 0.607554375
vt 0.25634875 0.7611815625
vt 0.2304584375 0.7610281249999999
vt 0.742188125 0.8407515624999999
vt 0.7421890625 0.8608140625
vt 0.7187509375 0.8507840625
vt 0.001129375 0.37841468749999996
vt 0.05290375 0.3786271875
vt 0.0315090625 0.5340906249999999
vt 0.005621875 0.533984375
vt 0.7421890625 0.8608140625
vt 0.7284615625 0.8749990625
vt 0.7187509375 0.8507840625
vt 0.4116125 0.564321875
vt 0.4633875 0.564321875
vt 0.45044375 0.7207125
vt 0.42455625 0.7207125
vt 0.7284571875 0.875
vt 0.7090384375 0.8749990625
vt 0.7187490625 0.8507840625
vt 0.103461875 0.378610625
vt 0.1552365625 0.37842312499999997
vt 0.1506684375 0.5339906249999999
vt 0.12478125 0.534084375
vt 0.7090384375 0.8749990625
vt 0.6953109375 0.8608140625
vt 0.7187490625 0.8507840625
vt 0.3149015625 0.6074871875000001
vt 0.3666759375 0.607268125
vt 0.3654328125 0.761046875
vt 0.3395421875 0.76115625
vt 0.6953109375 0.8608140625
vt 0.695311875 0.8407515624999999
vt 0.7187490625 0.8507840625
vt 0.28125 0.33774000000000004
vt 0.333025 0.33773375000000005
vt 0.3279121875 0.49010937499999996
vt 0.3020246875 0.49011249999999995
vt 0.695311875 0.8407515624999999
vt 0.709040625 0.8265678125
vt 0.7187490625 0.8507840625
vt 0.3803625 0.3125
vt 0.4321375 0.3125
vt 0.41919375 0.4644125
vt 0.39330625 0.4644125
vt 0.709040625 0.8265678125
vt 0.728459375 0.8265678125
vt 0.71875 0.8507865625
vt 0.3308559375 0.55549375
vt 0.3123996875 0.5625
vt 0.3020246875 0.49011249999999995
vt 0.3278746875 0.49010937499999996
vt 0.415959375 0.529796875
vt 0.396540625 0.529796875
vt 0.39330625 0.4644125
vt 0.41919375 0.4644125
vt 0.2185975 0.5625
vt 0.20014125 0.55549375
vt 0.203135 0.49009375
vt 0.2289725 0.49013125
vt 0.2406053125 0.84375
vt 0.2231896875 0.83379375
vt 0.2304584375 0.7610281249999999
vt 0.2563021875 0.76118125
vt 0.01840625 0.625
vt 0 0.617859375
vt 0.005621875 0.533984375
vt 0.031503125 0.5340906249999999
vt 0.447209375 0.8125
vt 0.427790625 0.8125
vt 0.42455625 0.7207125
vt 0.45044375 0.7207125
vt 0.15625 0.617865625
vt 0.13784375 0.625
vt 0.12478125 0.534084375
vt 0.150665625 0.5339906249999999
vt 0.3725984375 0.83380625
vt 0.3551734375 0.84375
vt 0.3395421875 0.76115625
vt 0.3653984375 0.761046875
vn 0.6986921762143935 0.6028122987284225 0.38528765279794525
vn -0.0000015568119653066155 0.964054703416552 -0.265703836664058
vn 0.9791324793881088 0.14370036152928573 -0.14370036152928575
vn -0.000005797104737186417 0.9640573357680351 -0.2656942854451933
vn 0.6844465891558588 -0.3064018640624314 -0.6615517850417898
vn -0.000006641550895213632 0.964056811547849 -0.26569618752267615
vn 0 -0.4895056364368207 -0.8720001329682143
vn 0 0.9640575189571904 -0.26569362081560527
vn -0.6844465891558588 -0.3064018640624314 -0.6615517850417898
vn 0.00000664155089518481 0.964056811547849 -0.26569618752267615
vn -0.9791324793881088 0.14370036152928573 -0.14370036152928575
vn 0.000005797104737186417 0.9640573357680351 -0.2656942854451933
vn -0.6986920203673613 0.6028131896888625 0.3852865414365186
vn 0.0000015568119652777933 0.964054703416552 -0.265703836664058
vn 0 0.7948588767573019 0.6067943358668739
vn 0 0.9640545375956808 -0.26570443831667173
vn -0.6678201514532074 0.5276398286473281 0.524988053709828
vn 0 0.6977727509993168 0.7163191941884884
vn 0.6616792998836254 0.546138359904091 0.5137250197788552
vn 0.9931321372747228 0.11279288691289062 -0.03108572942681468
vn 0.7084704646311335 -0.3433489135732957 -0.6165882939963938
vn 0 -0.5242924384533605 -0.8515382780478099
vn -0.7077277552993436 -0.34892792309975157 -0.6143050780029791
vn -0.9951579164850077 0.09475620075806965 -0.02611481715645004
usemtl m_695a7a8e-0f10-5f71-2563-804a7911bf70
f 55/107/28 57/108/28 58/109/28 56/110/28
f 74/111/29 75/112/29 73/113/29
f 57/114/30 59/115/30 60/116/30 58/117/30
f 75/118/31 76/119/31 73/120/31
f 59/121/32 61/122/32 62/123/32 60/124/32
f 76/125/33 77/126/33 73/127/33
f 61/128/34 63/129/34 64/130/34 62/131/34
f 77/132/35 78/133/35 73/134/35
f 63/135/36 65/136/36 66/137/36 64/138/36
f 78/139/37 79/140/37 73/141/37
f 65/142/38 67/143/38 68/144/38 66/145/38
f 79/146/39 71/147/39 73/148/39
f 67/149/40 69/150/40 70/151/40 68/152/40
f 71/153/41 72/154/41 73/155/41
f 69/156/42 55/157/42 56/158/42 70/159/42
f 72/160/43 74/161/43 73/162/43
f 72/163/44 71/164/44 68/165/44 70/166/44
f 74/167/45 72/168/45 70/169/45 56/170/45
f 75/171/46 74/172/46 56/173/46 58/174/46
f 76/175/47 75/176/47 58/177/47 60/178/47
f 77/179/48 76/180/48 60/181/48 62/182/48
f 78/183/49 77/184/49 62/185/49 64/186/49
f 79/187/50 78/188/50 64/189/50 66/190/50
f 71/191/51 79/192/51 66/193/51 68/194/51
o cylinder
v 0 0 0
v -0.24999981219719508 0 -0.1035535783960787
v -0.24999981219719508 0.03125 -0.1035535783960787
v -0.24999981219719508 0 0.10355357839607866
v -0.24999981219719508 0.03125 0.10355357839607866
v -0.37499993926666175 0.0625 -0.15533014662324895
v -0.37499993926666175 0.0625 0.15533014662324887
v -0.43749978183052596 0.1875 -0.18121865170770313
v -0.43749978183052596 0.1875 0.18121865170770304
v -0.43749978183052596 0.3125 -0.18121865170770313
v -0.43749978183052596 0.3125 0.18121865170770304
v -0.31250009670279755 0.6875 -0.12944164153879467
v -0.31250009670279755 0.6875 0.12944164153879462
v -0.12500012706946667 0.75 -0.05177656822717023
v -0.12500012706946667 0.75 0.05177656822717021
v -0.09374998481666544 0.78125 0.03883253665581222
v -0.09374998481666544 0.78125 -0.03883253665581224
v -0.12500012706946667 0.90625 0.05177656822717021
v -0.12500012706946667 0.90625 -0.05177656822717023
v 0 0.953125 0
v -0.09374998481666544 0.9375 0.03883253665581222
v -0.09374998481666544 0.9375 -0.03883253665581224
vt 0.5165853125 0.9790496875
vt 0.4209146875 0.9394203125
vt 0.5165853125 0.84375
vt 0.59375 0.59375
vt 0.6875 0.59375
vt 0.6875 0.625
vt 0.59375 0.625
vt 0.006471875 0.29622812499999995
vt 0.045303125 0.29622812499999995
vt 0.0258875 0.34375
vt 0.62408125 0.53125
vt 0.46875 0.53125
vt 0.4946375 0.46875
vt 0.59819375 0.46875
vt 0.18121875 0.739859375
vt 0 0.739859375
vt 0.01294375 0.66998125
vt 0.168275 0.66998125
vt 0.18121875 0.802359375
vt 0 0.802359375
vt 0 0.739859375
vt 0.18121875 0.739859375
vt 0.15533125 1
vt 0.0258875 1
vt 0 0.802359375
vt 0.18121875 0.802359375
vt 0.309359375 0.977903125
vt 0.257584375 0.977903125
vt 0.21875 0.879084375
vt 0.34819375 0.879084375
vt 0.3028875 1
vt 0.26405625 1
vt 0.257584375 0.977903125
vt 0.309359375 0.977903125
vt 0.551775 0.625
vt 0.5 0.625
vt 0.506471875 0.5625
vt 0.545303125 0.5625
vt 0.045303125 0.29622812499999995
vt 0.006471875 0.29622812499999995
vt 0 0.27413125000000005
vt 0.051775 0.27413125000000005
vn 0 -1 0
vn -1 0 -1.1102230246251565e-16
vn -0.16439901321108924 0.9863939195145214 -1.3877787807814457e-17
vn -0.24253539298856674 -0.9701425581572439 -1.3877787807814457e-17
vn -0.8944276416082031 -0.4472126942822485 -5.551115123125783e-17
vn -1 0 -1.1102230246251565e-16
vn -0.9486835370215553 0.3162270491028109 -1.1102230246251568e-16
vn -0.3162278121102072 0.9486832826860563 -2.775557561562892e-17
vn -0.7071051717816528 0.7071083905877792 -5.551115123125783e-17
vn -0.9701422403698083 -0.2425366641360624 -1.1102230246251565e-16
vn -0.7071051717816528 0.7071083905877792 -5.551115123125783e-17
usemtl m_695a7a8e-0f10-5f71-2563-804a7911bf70
f 83/195/52 81/196/52 80/197/52
f 81/198/53 83/199/53 84/200/53 82/201/53
f 101/202/54 100/203/54 99/204/54
f 86/205/55 85/206/55 82/207/55 84/208/55
f 88/209/56 87/210/56 85/211/56 86/212/56
f 90/213/57 89/214/57 87/215/57 88/216/57
f 92/217/58 91/218/58 89/219/58 90/220/58
f 94/221/59 93/222/59 91/223/59 92/224/59
f 95/225/60 96/226/60 93/227/60 94/228/60
f 97/229/61 98/230/61 96/231/61 95/232/61
f 100/233/62 101/234/62 98/235/62 97/236/62
o cylinder
v 0 0 0
v -0.10355312500000005 0 -0.24999999999999997
v -0.10355312500000005 0.03125 -0.24999999999999997
v -0.25 0 -0.10355312499999994
v -0.25 0.03125 -0.10355312499999994
v -0.15533000000000008 0.0625 -0.37499999999999994
v -0.37500000000000006 0.0625 -0.1553299999999999
v -0.18121812500000012 0.1875 -0.43749999999999994
v -0.43750000000000006 0.1875 -0.1812181249999999
v -0.18121812500000012 0.3125 -0.43749999999999994
v -0.43750000000000006 0.3125 -0.1812181249999999
v -0.1294418750000001 0.6875 -0.31249999999999994
v -0.31250000000000006 0.6875 -0.12944187499999993
v -0.05177687500000003 0.75 -0.12499999999999999
v -0.125 0.75 -0.05177687499999997
v -0.09375000000000001 0.78125 -0.03883249999999998
v -0.03883250000000002 0.78125 -0.09374999999999999
v -0.125 0.90625 -0.05177687499999997
v -0.05177687500000003 0.90625 -0.12499999999999999
v 0 0.953125 0
v -0.09375000000000001 0.9375 -0.03883249999999998
v -0.03883250000000002 0.9375 -0.09374999999999999
vt 0.5165853125 0.9790496875
vt 0.4209146875 0.9394203125
vt 0.5165853125 0.84375
vt 0.59375 0.59375
vt 0.6875 0.59375
vt 0.6875 0.625
vt 0.59375 0.625
vt 0.006471875 0.29622812499999995
vt 0.045303125 0.29622812499999995
vt 0.0258875 0.34375
vt 0.62408125 0.53125
vt 0.46875 0.53125
vt 0.4946375 0.46875
vt 0.59819375 0.46875
vt 0.18121875 0.739859375
vt 0 0.739859375
vt 0.01294375 0.66998125
vt 0.168275 0.66998125
vt 0.18121875 0.802359375
vt 0 0.802359375
vt 0 0.739859375
vt 0.18121875 0.739859375
vt 0.15533125 1
vt 0.0258875 1
vt 0 0.802359375
vt 0.18121875 0.802359375
vt 0.309359375 0.977903125
vt 0.257584375 0.977903125
vt 0.21875 0.879084375
vt 0.34819375 0.879084375
vt 0.3028875 1
vt 0.26405625 1
vt 0.257584375 0.977903125
vt 0.309359375 0.977903125
vt 0.551775 0.625
vt 0.5 0.625
vt 0.506471875 0.5625
vt 0.545303125 0.5625
vt 0.045303125 0.29622812499999995
vt 0.006471875 0.29622812499999995
vt 0 0.27413125000000005
vt 0.051775 0.27413125000000005
vn 0 -1 0
vn -0.7071067811865477 0 -0.7071067811865475
vn -0.11624765706193806 0.9863939195145214 -0.116247657061938
vn -0.17149842105995983 -0.9701425581572442 -0.17149842105995977
vn -0.6324558506618515 -0.4472126942822485 -0.6324558506618513
vn -0.7071067811865477 0 -0.7071067811865475
vn -0.6708205622279809 0.3162270491028109 -0.6708205622279807
vn -0.223606830342913 0.9486832826860563 -0.2236068303429129
vn -0.4999988619788854 0.7071083905877792 -0.49999886197888516
vn -0.6859941568810012 -0.2425366641360624 -0.685994156881001
vn -0.4999988619788854 0.7071083905877792 -0.49999886197888516
usemtl m_695a7a8e-0f10-5f71-2563-804a7911bf70
f 105/237/63 103/238/63 102/239/63
f 103/240/64 105/241/64 106/242/64 104/243/64
f 123/244/65 122/245/65 121/246/65
f 108/247/66 107/248/66 104/249/66 106/250/66
f 110/251/67 109/252/67 107/253/67 108/254/67
f 112/255/68 111/256/68 109/257/68 110/258/68
f 114/259/69 113/260/69 111/261/69 112/262/69
f 116/263/70 115/264/70 113/265/70 114/266/70
f 117/267/71 118/268/71 115/269/71 116/270/71
f 119/271/72 120/272/72 118/273/72 117/274/72
f 122/275/73 123/276/73 120/277/73 119/278/73
o cylinder
v 0 0 0
v 0.10355357839607865 0 -0.2499998121971951
v 0.10355357839607865 0.03125 -0.2499998121971951
v -0.10355357839607873 0 -0.24999981219719508
v -0.10355357839607873 0.03125 -0.24999981219719508
v 0.15533014662324884 0.0625 -0.37499993926666175
v -0.15533014662324895 0.0625 -0.37499993926666175
v 0.18121865170770304 0.1875 -0.437499781830526
v -0.18121865170770318 0.1875 -0.43749978183052596
v 0.18121865170770304 0.3125 -0.437499781830526
v -0.18121865170770318 0.3125 -0.43749978183052596
v 0.12944164153879462 0.6875 -0.3125000967027976
v -0.12944164153879473 0.6875 -0.31250009670279755
v 0.0517765682271702 0.75 -0.12500012706946667
v -0.05177656822717024 0.75 -0.12500012706946667
v -0.03883253665581224 0.78125 -0.09374998481666544
v 0.03883253665581221 0.78125 -0.09374998481666544
v -0.05177656822717024 0.90625 -0.12500012706946667
v 0.0517765682271702 0.90625 -0.12500012706946667
v 0 0.953125 0
v -0.03883253665581224 0.9375 -0.09374998481666544
v 0.03883253665581221 0.9375 -0.09374998481666544
vt 0.5165853125 0.9790496875
vt 0.4209146875 0.9394203125
vt 0.5165853125 0.84375
vt 0.59375 0.59375
vt 0.6875 0.59375
vt 0.6875 0.625
vt 0.59375 0.625
vt 0.006471875 0.29622812499999995
vt 0.045303125 0.29622812499999995
vt 0.0258875 0.34375
vt 0.62408125 0.53125
vt 0.46875 0.53125
vt 0.4946375 0.46875
vt 0.59819375 0.46875
vt 0.18121875 0.739859375
vt 0 0.739859375
vt 0.01294375 0.66998125
vt 0.168275 0.66998125
vt 0.18121875 0.802359375
vt 0 0.802359375
vt 0 0.739859375
vt 0.18121875 0.739859375
vt 0.15533125 1
vt 0.0258875 1
vt 0 0.802359375
vt 0.18121875 0.802359375
vt 0.309359375 0.977903125
vt 0.257584375 0.977903125
vt 0.21875 0.879084375
vt 0.34819375 0.879084375
vt 0.3028875 1
vt 0.26405625 1
vt 0.257584375 0.977903125
vt 0.309359375 0.977903125
vt 0.551775 0.625
vt 0.5 0.625
vt 0.506471875 0.5625
vt 0.545303125 0.5625
vt 0.045303125 0.29622812499999995
vt 0.006471875 0.29622812499999995
vt 0 0.27413125000000005
vt 0.051775 0.27413125000000005
vn 0 -1 0
vn -1.1102230246251565e-16 0 -1
vn -2.7755575615628914e-17 0.9863939195145214 -0.16439901321108927
vn -4.163336342344337e-17 -0.9701425581572439 -0.24253539298856674
vn -1.6653345369377348e-16 -0.4472126942822485 -0.8944276416082031
vn -1.1102230246251565e-16 0 -1
vn -1.6653345369377348e-16 0.31622704910281085 -0.9486835370215552
vn -5.551115123125784e-17 0.9486832826860563 -0.31622781211020723
vn -1.1102230246251565e-16 0.7071083905877792 -0.7071051717816529
vn -1.6653345369377348e-16 -0.2425366641360624 -0.9701422403698083
vn -1.1102230246251565e-16 0.7071083905877792 -0.7071051717816529
usemtl m_695a7a8e-0f10-5f71-2563-804a7911bf70
f 127/279/74 125/280/74 124/281/74
f 125/282/75 127/283/75 128/284/75 126/285/75
f 145/286/76 144/287/76 143/288/76
f 130/289/77 129/290/77 126/291/77 128/292/77
f 132/293/78 131/294/78 129/295/78 130/296/78
f 134/297/79 133/298/79 131/299/79 132/300/79
f 136/301/80 135/302/80 133/303/80 134/304/80
f 138/305/81 137/306/81 135/307/81 136/308/81
f 139/309/82 140/310/82 137/311/82 138/312/82
f 141/313/83 142/314/83 140/315/83 139/316/83
f 144/317/84 145/318/84 142/319/84 141/320/84
o cylinder
v 0 0 0
v 0.25 0 -0.10355312500000002
v 0.25 0.03125 -0.10355312500000002
v 0.10355312499999997 0 -0.25
v 0.10355312499999997 0.03125 -0.25
v 0.375 0.0625 -0.15533000000000005
v 0.15532999999999994 0.0625 -0.375
v 0.4375 0.1875 -0.18121812500000006
v 0.18121812499999995 0.1875 -0.4375
v 0.4375 0.3125 -0.18121812500000006
v 0.18121812499999995 0.3125 -0.4375
v 0.3125 0.6875 -0.12944187500000004
v 0.12944187499999998 0.6875 -0.3125
v 0.125 0.75 -0.051776875000000014
v 0.051776874999999986 0.75 -0.125
v 0.038832499999999985 0.78125 -0.09375
v 0.09375 0.78125 -0.03883250000000001
v 0.051776874999999986 0.90625 -0.125
v 0.125 0.90625 -0.051776875000000014
v 0 0.953125 0
v 0.038832499999999985 0.9375 -0.09375
v 0.09375 0.9375 -0.03883250000000001
vt 0.5165853125 0.9790496875
vt 0.4209146875 0.9394203125
vt 0.5165853125 0.84375
vt 0.59375 0.59375
vt 0.6875 0.59375
vt 0.6875 0.625
vt 0.59375 0.625
vt 0.006471875 0.29622812499999995
vt 0.045303125 0.29622812499999995
vt 0.0258875 0.34375
vt 0.62408125 0.53125
vt 0.46875 0.53125
vt 0.4946375 0.46875
vt 0.59819375 0.46875
vt 0.18121875 0.739859375
vt 0 0.739859375
vt 0.01294375 0.66998125
vt 0.168275 0.66998125
vt 0.18121875 0.802359375
vt 0 0.802359375
vt 0 0.739859375
vt 0.18121875 0.739859375
vt 0.15533125 1
vt 0.0258875 1
vt 0 0.802359375
vt 0.18121875 0.802359375
vt 0.309359375 0.977903125
vt 0.257584375 0.977903125
vt 0.21875 0.879084375
vt 0.34819375 0.879084375
vt 0.3028875 1
vt 0.26405625 1
vt 0.257584375 0.977903125
vt 0.309359375 0.977903125
vt 0.551775 0.625
vt 0.5 0.625
vt 0.506471875 0.5625
vt 0.545303125 0.5625
vt 0.045303125 0.29622812499999995
vt 0.006471875 0.29622812499999995
vt 0 0.27413125000000005
vt 0.051775 0.27413125000000005
vn 0 -1 0
vn 0.7071067811865475 0 -0.7071067811865477
vn 0.11624765706193801 0.9863939195145214 -0.11624765706193804
vn 0.17149842105995977 -0.9701425581572442 -0.17149842105995983
vn 0.6324558506618513 -0.4472126942822485 -0.6324558506618515
vn 0.7071067811865475 0 -0.7071067811865477
vn 0.6708205622279807 0.3162270491028109 -0.6708205622279809
vn 0.22360683034291293 0.9486832826860563 -0.22360683034291298
vn 0.4999988619788852 0.7071083905877792 -0.4999988619788853
vn 0.685994156881001 -0.2425366641360624 -0.6859941568810012
vn 0.4999988619788852 0.7071083905877792 -0.4999988619788853
usemtl m_695a7a8e-0f10-5f71-2563-804a7911bf70
f 149/321/85 147/322/85 146/323/85
f 147/324/86 149/325/86 150/326/86 148/327/86
f 167/328/87 166/329/87 165/330/87
f 152/331/88 151/332/88 148/333/88 150/334/88
f 154/335/89 153/336/89 151/337/89 152/338/89
f 156/339/90 155/340/90 153/341/90 154/342/90
f 158/343/91 157/344/91 155/345/91 156/346/91
f 160/347/92 159/348/92 157/349/92 158/350/92
f 161/351/93 162/352/93 159/353/93 160/354/93
f 163/355/94 164/356/94 162/357/94 161/358/94
f 166/359/95 167/360/95 164/361/95 163/362/95
o cylinder
v 0 0 0
v 0.24999981219719508 0 0.10355357839607873
v 0.24999981219719508 0.03125 0.10355357839607873
v 0.2499998121971951 0 -0.10355357839607865
v 0.2499998121971951 0.03125 -0.10355357839607865
v 0.37499993926666175 0.0625 0.15533014662324895
v 0.37499993926666175 0.0625 -0.15533014662324884
v 0.43749978183052596 0.1875 0.18121865170770318
v 0.437499781830526 0.1875 -0.18121865170770304
v 0.43749978183052596 0.3125 0.18121865170770318
v 0.437499781830526 0.3125 -0.18121865170770304
v 0.31250009670279755 0.6875 0.12944164153879473
v 0.3125000967027976 0.6875 -0.12944164153879462
v 0.12500012706946667 0.75 0.05177656822717024
v 0.12500012706946667 0.75 -0.0517765682271702
v 0.09374998481666544 0.78125 -0.03883253665581221
v 0.09374998481666544 0.78125 0.03883253665581224
v 0.12500012706946667 0.90625 -0.0517765682271702
v 0.12500012706946667 0.90625 0.05177656822717024
v 0 0.953125 0
v 0.09374998481666544 0.9375 -0.03883253665581221
v 0.09374998481666544 0.9375 0.03883253665581224
vt 0.5165853125 0.9790496875
vt 0.4209146875 0.9394203125
vt 0.5165853125 0.84375
vt 0.59375 0.59375
vt 0.6875 0.59375
vt 0.6875 0.625
vt 0.59375 0.625
vt 0.006471875 0.29622812499999995
vt 0.045303125 0.29622812499999995
vt 0.0258875 0.34375
vt 0.62408125 0.53125
vt 0.46875 0.53125
vt 0.4946375 0.46875
vt 0.59819375 0.46875
vt 0.18121875 0.739859375
vt 0 0.739859375
vt 0.01294375 0.66998125
vt 0.168275 0.66998125
vt 0.18121875 0.802359375
vt 0 0.802359375
vt 0 0.739859375
vt 0.18121875 0.739859375
vt 0.15533125 1
vt 0.0258875 1
vt 0 0.802359375
vt 0.18121875 0.802359375
vt 0.309359375 0.977903125
vt 0.257584375 0.977903125
vt 0.21875 0.879084375
vt 0.34819375 0.879084375
vt 0.3028875 1
vt 0.26405625 1
vt 0.257584375 0.977903125
vt 0.309359375 0.977903125
vt 0.551775 0.625
vt 0.5 0.625
vt 0.506471875 0.5625
vt 0.545303125 0.5625
vt 0.045303125 0.29622812499999995
vt 0.006471875 0.29622812499999995
vt 0 0.27413125000000005
vt 0.051775 0.27413125000000005
vn 0 -1 0
vn 1 0 1.1102230246251565e-16
vn 0.16439901321108927 0.9863939195145214 2.7755575615628914e-17
vn 0.24253539298856674 -0.9701425581572439 4.163336342344337e-17
vn 0.8944276416082031 -0.4472126942822485 1.6653345369377348e-16
vn 1 0 1.1102230246251565e-16
vn 0.9486835370215552 0.31622704910281085 1.6653345369377348e-16
vn 0.31622781211020723 0.9486832826860563 5.551115123125784e-17
vn 0.7071051717816529 0.7071083905877792 1.1102230246251565e-16
vn 0.9701422403698083 -0.2425366641360624 1.6653345369377348e-16
vn 0.7071051717816529 0.7071083905877792 1.1102230246251565e-16
usemtl m_695a7a8e-0f10-5f71-2563-804a7911bf70
f 171/363/96 169/364/96 168/365/96
f 169/366/97 171/367/97 172/368/97 170/369/97
f 189/370/98 188/371/98 187/372/98
f 174/373/99 173/374/99 170/375/99 172/376/99
f 176/377/100 175/378/100 173/379/100 174/380/100
f 178/381/101 177/382/101 175/383/101 176/384/101
f 180/385/102 179/386/102 177/387/102 178/388/102
f 182/389/103 181/390/103 179/391/103 180/392/103
f 183/393/104 184/394/104 181/395/104 182/396/104
f 185/397/105 186/398/105 184/399/105 183/400/105
f 188/401/106 189/402/106 186/403/106 185/404/106
o cylinder
v 0 0 0
v 0.10355312499999994 0 0.25
v 0.10355312499999994 0.03125 0.25
v 0.24999999999999997 0 0.10355312500000005
v 0.24999999999999997 0.03125 0.10355312500000005
v 0.1553299999999999 0.0625 0.37500000000000006
v 0.37499999999999994 0.0625 0.15533000000000008
v 0.1812181249999999 0.1875 0.43750000000000006
v 0.43749999999999994 0.1875 0.18121812500000012
v 0.1812181249999999 0.3125 0.43750000000000006
v 0.43749999999999994 0.3125 0.18121812500000012
v 0.12944187499999993 0.6875 0.31250000000000006
v 0.31249999999999994 0.6875 0.1294418750000001
v 0.05177687499999997 0.75 0.125
v 0.12499999999999999 0.75 0.05177687500000003
v 0.09374999999999999 0.78125 0.03883250000000002
v 0.03883249999999998 0.78125 0.09375000000000001
v 0.12499999999999999 0.90625 0.05177687500000003
v 0.05177687499999997 0.90625 0.125
v 0 0.953125 0
v 0.09374999999999999 0.9375 0.03883250000000002
v 0.03883249999999998 0.9375 0.09375000000000001
vt 0.5165853125 0.9790496875
vt 0.4209146875 0.9394203125
vt 0.5165853125 0.84375
vt 0.59375 0.59375
vt 0.6875 0.59375
vt 0.6875 0.625
vt 0.59375 0.625
vt 0.006471875 0.29622812499999995
vt 0.045303125 0.29622812499999995
vt 0.0258875 0.34375
vt 0.62408125 0.53125
vt 0.46875 0.53125
vt 0.4946375 0.46875
vt 0.59819375 0.46875
vt 0.18121875 0.739859375
vt 0 0.739859375
vt 0.01294375 0.66998125
vt 0.168275 0.66998125
vt 0.18121875 0.802359375
vt 0 0.802359375
vt 0 0.739859375
vt 0.18121875 0.739859375
vt 0.15533125 1
vt 0.0258875 1
vt 0 0.802359375
vt 0.18121875 0.802359375
vt 0.309359375 0.977903125
vt 0.257584375 0.977903125
vt 0.21875 0.879084375
vt 0.34819375 0.879084375
vt 0.3028875 1
vt 0.26405625 1
vt 0.257584375 0.977903125
vt 0.309359375 0.977903125
vt 0.551775 0.625
vt 0.5 0.625
vt 0.506471875 0.5625
vt 0.545303125 0.5625
vt 0.045303125 0.29622812499999995
vt 0.006471875 0.29622812499999995
vt 0 0.27413125000000005
vt 0.051775 0.27413125000000005
vn 0 -1 0
vn 0.7071067811865475 0 0.7071067811865477
vn 0.116247657061938 0.9863939195145214 0.11624765706193806
vn 0.17149842105995977 -0.9701425581572442 0.17149842105995983
vn 0.6324558506618513 -0.4472126942822485 0.6324558506618515
vn 0.7071067811865475 0 0.7071067811865477
vn 0.6708205622279807 0.3162270491028109 0.6708205622279809
vn 0.2236068303429129 0.9486832826860563 0.223606830342913
vn 0.49999886197888516 0.7071083905877792 0.4999988619788854
vn 0.685994156881001 -0.2425366641360624 0.6859941568810012
vn 0.49999886197888516 0.7071083905877792 0.4999988619788854
usemtl m_695a7a8e-0f10-5f71-2563-804a7911bf70
f 193/405/107 191/406/107 190/407/107
f 191/408/108 193/409/108 194/410/108 192/411/108
f 211/412/109 210/413/109 209/414/109
f 196/415/110 195/416/110 192/417/110 194/418/110
f 198/419/111 197/420/111 195/421/111 196/422/111
f 200/423/112 199/424/112 197/425/112 198/426/112
f 202/427/113 201/428/113 199/429/113 200/430/113
f 204/431/114 203/432/114 201/433/114 202/434/114
f 205/435/115 206/436/115 203/437/115 204/438/115
f 207/439/116 208/440/116 206/441/116 205/442/116
f 210/443/117 211/444/117 208/445/117 207/446/117
o cylinder
v 0 0 0
v -0.10355357839607866 0 0.24999981219719508
v -0.10355357839607866 0.03125 0.24999981219719508
v 0.1035535783960787 0 0.24999981219719508
v 0.1035535783960787 0.03125 0.24999981219719508
v -0.15533014662324887 0.0625 0.37499993926666175
v 0.15533014662324895 0.0625 0.37499993926666175
v -0.18121865170770304 0.1875 0.43749978183052596
v 0.18121865170770313 0.1875 0.43749978183052596
v -0.18121865170770304 0.3125 0.43749978183052596
v 0.18121865170770313 0.3125 0.43749978183052596
v -0.12944164153879462 0.6875 0.31250009670279755
v 0.12944164153879467 0.6875 0.31250009670279755
v -0.05177656822717021 0.75 0.12500012706946667
v 0.05177656822717023 0.75 0.12500012706946667
v 0.03883253665581224 0.78125 0.09374998481666544
v -0.03883253665581222 0.78125 0.09374998481666544
v 0.05177656822717023 0.90625 0.12500012706946667
v -0.05177656822717021 0.90625 0.12500012706946667
v 0 0.953125 0
v 0.03883253665581224 0.9375 0.09374998481666544
v -0.03883253665581222 0.9375 0.09374998481666544
vt 0.5165853125 0.9790496875
vt 0.4209146875 0.9394203125
vt 0.5165853125 0.84375
vt 0.59375 0.59375
vt 0.6875 0.59375
vt 0.6875 0.625
vt 0.59375 0.625
vt 0.006471875 0.29622812499999995
vt 0.045303125 0.29622812499999995
vt 0.0258875 0.34375
vt 0.62408125 0.53125
vt 0.46875 0.53125
vt 0.4946375 0.46875
vt 0.59819375 0.46875
vt 0.18121875 0.739859375
vt 0 0.739859375
vt 0.01294375 0.66998125
vt 0.168275 0.66998125
vt 0.18121875 0.802359375
vt 0 0.802359375
vt 0 0.739859375
vt 0.18121875 0.739859375
vt 0.15533125 1
vt 0.0258875 1
vt 0 0.802359375
vt 0.18121875 0.802359375
vt 0.309359375 0.977903125
vt 0.257584375 0.977903125
vt 0.21875 0.879084375
vt 0.34819375 0.879084375
vt 0.3028875 1
vt 0.26405625 1
vt 0.257584375 0.977903125
vt 0.309359375 0.977903125
vt 0.551775 0.625
vt 0.5 0.625
vt 0.506471875 0.5625
vt 0.545303125 0.5625
vt 0.045303125 0.29622812499999995
vt 0.006471875 0.29622812499999995
vt 0 0.27413125000000005
vt 0.051775 0.27413125000000005
vn 0 -1 0
vn 1.1102230246251565e-16 0 1
vn 1.3877787807814457e-17 0.9863939195145214 0.16439901321108924
vn 1.3877787807814457e-17 -0.9701425581572439 0.24253539298856674
vn 5.551115123125783e-17 -0.4472126942822485 0.8944276416082031
vn 1.1102230246251565e-16 0 1
vn 1.1102230246251568e-16 0.3162270491028109 0.9486835370215553
vn 2.775557561562892e-17 0.9486832826860563 0.3162278121102072
vn 5.551115123125783e-17 0.7071083905877792 0.7071051717816528
vn 1.1102230246251565e-16 -0.2425366641360624 0.9701422403698083
vn 5.551115123125783e-17 0.7071083905877792 0.7071051717816528
usemtl m_695a7a8e-0f10-5f71-2563-804a7911bf70
f 215/447/118 213/448/118 212/449/118
f 213/450/119 215/451/119 216/452/119 214/453/119
f 233/454/120 232/455/120 231/456/120
f 218/457/121 217/458/121 214/459/121 216/460/121
f 220/461/122 219/462/122 217/463/122 218/464/122
f 222/465/123 221/466/123 219/467/123 220/468/123
f 224/469/124 223/470/124 221/471/124 222/472/124
f 226/473/125 225/474/125 223/475/125 224/476/125
f 227/477/126 228/478/126 225/479/126 226/480/126
f 229/481/127 230/482/127 228/483/127 227/484/127
f 232/485/128 233/486/128 230/487/128 229/488/128